# xmcd
#
# Track frame offsets:
#	150
#	20215
#	38020
#	52797
#	70992
#	84777
#	99035
#	115757
#	132532
#	145372
#	163272
#	183337
#	201145
#	215920
#	234117
#	247905
#	262160
#	278882
#	295657
#	308497
#
# Disc length: 4352
#
# Revision: 1
# Processed by: cddbd v1.5.1PL0 Copyright (c) Steve Scherf et al.
# Submitted via: audiograbber 1.82.02
# Normalized: r0:DSETVAR1
#
DISCID=1b10fe14
DTITLE=Various Artist - THC0007
DYEAR=2000
DGENRE=Country
TTITLE0=McEntire, Reba (GV) - I'll Be
TTITLE1=Rascal Flatts (GV) - Prayin' For Daylight
TTITLE2=Heatherly, Eric (GV) - Flowers On The Wall
TTITLE3=Womack, Lee Ann (GV) - I Hope You Dance
TTITLE4=Brooks and Dunn (GV) - You'll Always Be Loved By Me
TTITLE5=Diffie, Joe (GV) - It's Always Somethin'
TTITLE6=Lonestar (GV) - What About Now
TTITLE7=Kinleys, The (GV) - She Ain't The Girl For You
TTITLE8=Leigh, Danni (GV) - Honey I Do
TTITLE9=Wariner, Steve (GV) - Faith In You
TTITLE10=McEntire, Reba - I'll Be
TTITLE11=Rascal Flatts - Prayin' For Daylight
TTITLE12=Heatherly, Eric - Flowers On The Wall
TTITLE13=Womack, Lee Ann - I Hope You Dance
TTITLE14=Brooks and Dunn - You'll Always Be Loved By Me
TTITLE15=Diffie, Joe - It's Always Somethin'
TTITLE16=Lonestar - What About Now
TTITLE17=Kinleys, The - She Ain't The Girl For You
TTITLE18=Leigh, Danni - Honey I Do
TTITLE19=Wariner, Steve - Faith In You
EXTD=
EXTT0=
EXTT1=
EXTT2=
EXTT3=
EXTT4=
EXTT5=
EXTT6=
EXTT7=
EXTT8=
EXTT9=
EXTT10=
EXTT11=
EXTT12=
EXTT13=
EXTT14=
EXTT15=
EXTT16=
EXTT17=
EXTT18=
EXTT19=
PLAYORDER=
